<svg xmlns="http://www.w3.org/2000/svg" viewBox="0 0 1601.4 523.9"><style type="text/css">  
	.st0{fill:#FFC154;stroke:#000000;stroke-width:0.5;stroke-linejoin:round;}
</style><path class="st0" d="M746.5 300c-0.7 20.4-2.1 40.9-0.5 61.3 2.1 29.5 9 58.9 22.4 85.4 12.8 25.4 31.7 48.5 56.8 62.6 30.2 17.2 66 16.8 96-0.8 45.7-27 69.4-80 76.1-131 3.4-23.9 2.5-48.2 1.4-72.3 -0.6-14.8-0.3-29.7-1.1-44.5 -0.2-1.9-0.6-4.1-2-5.6 -2.3-2.2-5.6-3.5-8.3-5 -6.6-3.4-13.4-6.9-20-10.2 -4.1-2.1-8.4-4.4-12.5-6.4 -4.2-2.1-4.6-0.8-4.8 3.4 -1.1 31.2 1.5 62.5 0.4 93.6 -1.8 43.2-8.1 88.6-29 127 -17.9 32.6-48.8 54.3-80.4 23.3 -35.6-36.7-45-105.6-46.3-155 -0.7-30 1.7-60 0.5-90 -0.2-4.6-2.3-3.5-5.8-1.8 -3.1 1.6-6.4 3.3-9.5 4.9 -9.3 4.9-19 9.5-28.2 14.6 -2.8 1.6-4 4-4.2 7.2 -0.3 3.1-0.3 6.5-0.4 9.6C746.8 280.2 746.7 290.2 746.5 300"/><path class="st0" d="M670.9 438c0-30.7 0-62.2 0-92.9 0-66.2 0-132.7 0-198.9 0-5 0.1-10.2-0.1-15.2 -0.2-4.3-0.7-8.6-1.2-12.8 -6.4-66.2-61.6-117-128.3-117C486.2 0.9 436.2 37 419.1 89.5c-17.5 52.2 1.2 111.1 45.5 143.8 47 35.1 113.1 33.5 158.4-3.9 7.4-6 13.9-13 20.1-20.2 7.1-8.2 5.8-5.4 5.9 3.3 0 78.6 0 157.4 0 236 0 22 0 44.7 0 66.8 0 1.7 0 3.7 0 5.4 0.1 0.8-0.1 1.9 0.5 2.6 0.5 0.1 0.9-0.6 1.2-0.9 0.8-1 1.5-2.4 2.2-3.5 2.5-4.4 4.8-9.1 6.8-13.7C668.8 484.1 671.4 460.8 670.9 438zM556.6 206.4c-49.8 9.9-95.7-29.7-93.2-80.4 1.6-35.5 27.9-66 62.8-72.8 34.5-7 70.2 10.7 85.4 42.3C633.9 141.6 606.8 196.4 556.6 206.4z"/><path class="st0" d="M1548.6 128.7c0.1 131.6-0.1 263.4 0.1 394.9l0 0c0.9-3.6 1.2-7.6 1.9-11.3 1.2-7.9 2.7-15.9 4.6-23.7 4.9-20.2 13.7-39.4 25-56.7 4.5-6.9 9.3-13.8 14.1-20.5 2.3-3.5 5.1-6.9 6.5-10.9 0.7-89.8 0-180 0.3-269.9 0-41.7 0-83.9 0-125.5 0 0 0-0.2 0-0.2s0-0.2 0-0.2 0-0.2 0-0.2 0-0.2 0-0.2 -0.1-0.1-0.1-0.1 -0.1-0.1-0.1-0.1 -0.1 0-0.1 0c-0.6 0-1.2 0.7-1.6 1.1 -6.5 6.9-11.9 15-17.3 22.8 -10.5 15.7-19.1 32.9-24.4 51.1C1552.7 95.1 1549.9 111.9 1548.6 128.7"/><path class="st0" d="M203.2 457.1c-67.5 0.2-135.5-0.3-203 0.2l0 0.1c1.3 0.9 3.1 1.3 4.6 1.8 3.8 1.3 7.7 2.8 11.3 4.5 20.2 9.5 32.9 28.7 44.8 46.7 2.4 3.3 5.6 9.2 9.3 11.1 0.7 0.3 1.4 0.2 2.1 0.2 1.5 0 3.4 0 4.9 0 61 0 122.4 0 183.4 0 3.7 0 7.9 0 11.6 0 0.4-0.1 1 0.1 1.4-0.2 0.3-0.5-0.1-1.2-0.3-1.7 -1.1-2.7-2.8-5.3-4.2-7.9 -8.4-14-17.8-27.9-30.4-38.5 -7.7-6.6-17-11.3-26.8-14.2C209.1 458.4 206.2 457.3 203.2 457.1"/><path class="st0" d="M249.9 219.3c-83.1 0.2-166.6-0.3-249.6 0.2l0 0.1c1.3 0.9 3.1 1.3 4.6 1.8 3.8 1.3 7.7 2.8 11.3 4.5 21.3 10 34.2 30.8 46.8 49.6 1.7 2.3 5.1 8 8.1 8.4 4 0 8.3 0 12.3 0 73.7 0 147.7 0 221.5 0 4.9 0 10.3 0 15.2 0 0.7-0.1 0.4-1 0.2-1.4 -0.4-1.1-1.1-2.3-1.6-3.4 -8.3-14.7-17.8-29.2-30.2-40.9 -8.1-7.6-18-13.2-28.6-16.4C256.6 220.8 253.3 219.5 249.9 219.3"/><path class="st0" d="M278.2 0.3C185.8 0.5 93.1 0 0.7 0.5l0 0.1C1.5 1.3 3 1.6 4.1 2c3.1 1.1 6.3 2.2 9.2 3.5 24 9.8 37.4 33.2 51.6 53.5 1.9 2.1 4 5.7 7.1 5.8 7 0 14.5 0 21.5 0 80.3 0 160.8 0 241.1 0 4.1 0 8.6 0 12.7 0 0.6 0 1.4 0.1 1.9-0.3 0.4-0.6 0.1-1.5-0.1-2.2 -1.1-3.1-2.9-6-4.5-8.8 -8.1-13.5-17.3-26.8-29.3-37 -7.8-6.7-17.1-11.4-26.9-14.2C285.1 1.5 281.7 0.4 278.2 0.3"/><path class="st0" d="M1309.8 352.6c-74.1 0.1-148.4-0.1-222.5 0.1l0 0c1.5 0.6 3.3 0.7 4.8 1.1 4.3 0.8 8.6 1.7 12.8 2.9 11.7 3.2 22.6 9.1 32.2 16.4 3.8 2.9 7.5 6 11.1 9 2.5 2 4.9 4.2 7.7 5.7 1 0.6 2.1 0.6 3.3 0.6 2.3 0 4.9 0 7.2 0 44 0 88.6 0 132.6 0 26.8 0 54.3 0 81.1 0 0.1 0 0.3-0.1 0.3-0.3 0-0.3-0.3-0.6-0.4-0.8 -1.5-1.9-3.4-3.6-5.1-5.2 -6.4-5.8-13.3-11.3-20.7-15.8C1340.9 358.1 1325.3 354 1309.8 352.6"/><path class="st0" d="M1465.4 352.6c-18.1 0-36.3 0-54.5 0 -0.6 0-1.3 0-1.9 0 -0.1 0-0.3 0-0.4 0 -0.1 0.1 0.1 0.2 0.1 0.3 1.1 0.9 2.3 1.6 3.3 2.6 2.3 2.1 3.9 4.8 5.3 7.5 3.1 6.3 5 13.2 7.1 19.9 0.6 1.8 1 3.8 2 5.3 0.1 0.1 0.3 0.1 0.5 0.1 0.6 0 1.3 0 1.8 0 18.1-0.1 36.5 0.2 54.6-0.1 0.1-0.9-0.3-1.8-0.4-2.6 -0.4-1.8-1-3.6-1.5-5.4 -1.5-5-3-10.1-5.1-14.8 -2.1-4.7-4.8-9.5-9.5-12.1C1466.4 353 1466 352.6 1465.4 352.6"/><path class="st0" d="M1309.8 232.6c-74.1 0.1-148.4-0.1-222.5 0.1l0 0c1.5 0.6 3.3 0.7 4.8 1.1 4.3 0.8 8.6 1.7 12.8 2.9 11.7 3.2 22.6 9.1 32.2 16.4 3.8 2.9 7.5 6 11.1 9 2.5 2 4.9 4.2 7.7 5.7 1 0.6 2.1 0.6 3.3 0.6 2.3 0 4.9 0 7.2 0 44 0 88.6 0 132.6 0 26.8 0 54.3 0 81.1 0 0.1 0 0.3-0.1 0.3-0.3 0-0.3-0.3-0.6-0.4-0.8 -1.5-1.9-3.4-3.6-5.1-5.2 -6.4-5.8-13.3-11.3-20.7-15.8C1340.9 238.1 1325.3 234 1309.8 232.6"/><path class="st0" d="M1465.4 232.6c-17.9 0-35.9 0-53.8 0 -0.8 0-1.7 0-2.5 0 -0.1 0-0.3 0-0.4 0 -0.1 0-0.1 0.1 0 0.2 1.1 0.9 2.3 1.7 3.3 2.7 1.9 1.7 3.3 3.9 4.6 6.1 3.2 5.9 5.1 12.3 7.1 18.7 0.8 2.5 1.4 5.1 2.5 7.5 0.1 0.2 0.2 0.5 0.5 0.6 0.4 0.1 0.9 0 1.3 0 18.5-0.1 37.1 0.1 55.5-0.1 0.1-0.7-0.2-1.5-0.3-2.1 -0.4-1.6-0.9-3.3-1.3-5 -1.4-5-3-10.1-5-14.9C1474.4 240.9 1471.2 234.8 1465.4 232.6"/></svg>